<svg width="26" height="24" viewBox="0 0 26 24" fill="none" xmlns="http://www.w3.org/2000/svg">
<path d="M1.30959 0.582038L23.7103 10.5379C24.7522 11.001 25.2731 11.2325 25.4334 11.5551C25.5726 11.8354 25.5726 12.1646 25.4334 12.4449C25.2731 12.7675 24.7522 12.999 23.7103 13.4621L1.30959 23.418C0.894551 23.6024 0.687033 23.6947 0.548476 23.656C0.428114 23.6224 0.330372 23.5344 0.284261 23.4183C0.23118 23.2846 0.301008 23.0685 0.440663 22.6363L3.37196 13.5652C3.50063 13.167 3.56497 12.9679 3.68655 12.8206C3.79391 12.6905 3.93243 12.5897 4.08921 12.5275C4.26677 12.4571 4.476 12.4571 4.89445 12.4571H12.4559C12.7084 12.4571 12.913 12.2525 12.913 12C12.913 11.7475 12.7084 11.5429 12.4559 11.5429H4.89445C4.476 11.5429 4.26677 11.5429 4.08921 11.4725C3.93243 11.4103 3.79391 11.3095 3.68655 11.1794C3.56497 11.0321 3.50063 10.833 3.37196 10.4348L0.440663 1.36367C0.301008 0.931495 0.23118 0.715408 0.284261 0.581703C0.330372 0.465556 0.428114 0.377633 0.548476 0.344031C0.687033 0.305348 0.894551 0.397578 1.30959 0.582038Z" fill="#4174F8"/>
</svg>
